<svg version="1.1" id="Layer_1" xmlns="http://www.w3.org/2000/svg" xmlns:xlink="http://www.w3.org/1999/xlink" x="0px" y="0px" viewBox="0 0 444.1 55.9" style="enable-background:new 0 0 444.1 55.9;" xml:space="preserve">
 <style type="text/css">
  .st0{fill:#0080C6;}
 </style>
 <g>
  <polyline class="st0" points="0,0.6 52.5,0.6 52.5,16.6 37.5,16.6 37.5,55 15.6,55 15.6,16.6 0,16.6 	">
  </polyline>
  <polyline class="st0" points="79.1,22.6 68.1,55 47.1,55 67.7,0.6 90.5,0.6 111.6,55 90.3,55 	">
  </polyline>
  <polyline class="st0" points="106.6,0.6 159.1,0.6 159.1,16.6 144.1,16.6 144.1,55 122.2,55 122.2,16.6 106.6,16.6 	">
  </polyline>
  <polyline class="st0" points="185.7,22.6 174.7,55 153.7,55 174.3,0.6 197.1,0.6 218.2,55 196.9,55 	">
  </polyline>
  <path class="st0" d="M244.8,44.2c3.2,1.8,8,3.4,13.1,3.4c6.3,0,9.8-3,9.8-7.4c0-4.1-2.7-6.5-9.6-9c-9-3.2-14.7-8-14.7-15.7
		c0-8.9,7.4-15.5,19.2-15.5c5.9,0,10.2,1.2,13,2.7l-2.4,8c-2-1-5.7-2.6-10.8-2.6c-6.3,0-8.9,3.3-8.9,6.5c0,4.2,3.1,6.1,10.4,8.9
		c9.4,3.6,13.9,8.3,13.9,16.1c0,8.7-6.6,16.3-20.5,16.3c-5.7,0-11.7-1.6-14.6-3.4">
  </path>
  <polyline class="st0" points="294.3,9.2 278.8,9.2 278.8,0.8 319.8,0.8 319.8,9.2 304.2,9.2 304.2,55 294.3,55 	">
  </polyline>
  <polyline class="st0" points="356.3,31 335.9,31 335.9,46.9 358.8,46.9 358.8,55 326,55 326,0.8 357.6,0.8 357.6,9 335.9,9 
		335.9,22.9 356.3,22.9 	">
  </polyline>
  <polyline class="st0" points="399.3,31 378.9,31 378.9,46.9 401.7,46.9 401.7,55 369,55 369,0.8 400.5,0.8 400.5,9 378.9,9 
		378.9,22.9 399.3,22.9 	">
  </polyline>
  <polyline class="st0" points="412,0.8 421.9,0.8 421.9,46.7 444.1,46.7 444.1,55 412,55 	">
  </polyline>
 </g>
</svg>